<?xml version="1.0" encoding="utf-8"?>
<!-- Generator: Adobe Illustrator 21.1.0, SVG Export Plug-In . SVG Version: 6.00 Build 0)  -->
<svg version="1.1" id="Layer_1" xmlns="http://www.w3.org/2000/svg" xmlns:xlink="http://www.w3.org/1999/xlink" x="0px" y="0px"
	 viewBox="0 0 367.9 367.9" style="enable-background:new 0 0 367.9 367.9;" xml:space="preserve">
<style type="text/css">
	.st0{fill:#232528;}
	.st1{fill:#B5B5B5;}
	.st2{opacity:0.12;}
	.st3{fill:#E9E9E9;}
	.st4{fill:#EDEDED;}
	.st5{fill:#383838;}
	.st6{fill:#3F3F3F;}
	.st7{fill:#EAEAEA;}
	.st8{fill:#CCCCCC;}
	.st9{fill:#D4D4D4;}
	.st10{fill:#FFFFFF;}
	.st11{fill:#363636;}
	.st12{fill:#333333;}
</style>
<title>chris_avatar_popup2</title>
<g id="Layer_2">
	<g id="Layer_1-2">
		<g>
			<g id="chrisBody">
				<path class="st0" d="M299,305.3c0,0-62,53.6-116.3,50.9S64,306.3,64,306.3s-20.9-21,13.7-71.9c19.1-28.1,60.7-56,103-56
					C283.9,178.5,299,305.3,299,305.3z"/>
				<ellipse id="neck" class="st1" cx="180.8" cy="199.7" rx="42.4" ry="21.2"/>
				<g class="st2">
					<circle class="st3" cx="162.2" cy="260.8" r="2.6"/>
					<circle class="st3" cx="204" cy="260.8" r="2.6"/>
					<path class="st3" d="M189.4,250.6c0,1.5-4,1.4-5,2.4s-0.9,5-2.4,5s-1.4-4-2.4-5s-5-0.9-5-2.4s4-1.4,5-2.4s0.9-5,2.4-5
						s1.4,4,2.4,5S189.4,249.2,189.4,250.6z"/>
					<path class="st3" d="M150,272.6c0,1.2-2.4,1.4-3.2,2.2s-1,3.2-2.2,3.2s-1.4-2.4-2.2-3.2s-3.2-1-3.2-2.2s2.4-1.4,3.2-2.2
						s1-3.2,2.2-3.2s1.4,2.4,2.2,3.2S150,271.5,150,272.6z"/>
					<path class="st3" d="M224.5,272.6c0,1.2-2.4,1.4-3.2,2.2s-1,3.2-2.2,3.2s-1.4-2.4-2.2-3.2s-3.2-1-3.2-2.2s2.4-1.4,3.2-2.2
						s1-3.2,2.2-3.2s1.4,2.4,2.2,3.2S224.5,271.5,224.5,272.6z"/>
					<path class="st4" d="M215.6,296.7h-1V295c0-0.1-5.3-5.7-5.3-5.7c-0.1-0.2-8.2-16.4-27.3-16.4c-19.3,0-26.9,16.2-27,16.4
						c0,0-5.3,5.6-5.3,5.7v1.7h-1c-0.2,0-0.4,0.2-0.4,0.5v10.5c0,0.3,0.2,0.5,0.4,0.5h1v1.4c0,0.1,3.5,3.1,5.1,4.5
						c0.6,0.5,0.9,1.2,0.9,1.9c0,2.2-0.1,6.9,0,6.9c1.4,3,3.4,5.8,5.8,8.1c5.6,5.3,13,8.2,20.7,8c7.7,0.1,15.1-2.8,20.6-8.2
						c2.4-2.3,4.4-5.1,5.8-8.2c0,0-0.1-4.7-0.1-7c0-0.8,0.4-1.5,1-2c0,0,5.2-3.9,5.2-4.1v-1.4h1c0.2,0,0.3-0.2,0.3-0.5v-10.6
						C216,296.9,215.8,296.7,215.6,296.7z M181.9,338.1c-18.1,0-25.4-14-25.4-15.3v-6.5c2,6.1,8,16.1,25.6,16.1
						c16.8,0,23-9.3,25.3-15.5v5.6C207.3,323.7,200,338.1,181.9,338.1L181.9,338.1z M152.9,306.7L152.9,306.7
						c-0.5,0-0.9-0.4-0.9-0.9c0,0,0,0,0,0v-7.1c0-0.5,0.4-0.9,0.9-0.9c0,0,0,0,0,0l0,0c0.5,0,0.9,0.4,0.9,0.9c0,0,0,0,0,0v7.1
						C153.8,306.3,153.4,306.7,152.9,306.7C152.9,306.7,152.9,306.7,152.9,306.7L152.9,306.7z M211.3,306.7L211.3,306.7
						c-0.5,0-0.9-0.4-0.9-0.9c0,0,0,0,0,0v-7.1c0-0.5,0.4-0.9,0.9-0.9c0,0,0,0,0,0l0,0c0.5,0,0.9,0.4,0.9,0.9c0,0,0,0,0,0v7.1
						C212.3,306.3,211.9,306.7,211.3,306.7C211.3,306.7,211.3,306.7,211.3,306.7L211.3,306.7z"/>
					<path class="st5" d="M181.8,277.2c-3.2,0-26.1-0.2-26.1,23.6c0,2.6,0.3,5.2,0.8,7.8c0.4,2,1.1,3.9,2.1,5.6
						c5.9,11.3,19,12.5,23.4,12.5s17.3-0.9,23.2-12c0.9-1.8,1.7-3.7,2.1-5.6c0.7-2.7,1-5.5,0.9-8.3
						C208.3,276.6,181.8,277.2,181.8,277.2z M171.8,294.4c-1.5,3.5-4.6,5.3-6.7,3.4c-2.1-2-2.5-5.1-1-7.5c1.6-2.1,4.1-3.1,6.7-2.8
						C172.8,288,173.2,290.9,171.8,294.4L171.8,294.4z"/>
					<path class="st6" d="M205.2,314.8c-5.9,11.1-18.9,12-23.2,12s-17.5-1.2-23.4-12.5c9.8-3.3,20.5-3.2,23.1-3.2
						C181.6,311.1,194,310.9,205.2,314.8z"/>
				</g>
			</g>
			<g id="outline">
				<path class="st7" d="M184,367.9C82.5,367.9,0,285.4,0,184S82.5,0,184,0s184,82.5,184,184S285.4,367.9,184,367.9z M184,24.9
					c-87.7,0-159,71.3-159,159S96.3,343,184,343s159-71.3,159-159S271.6,24.9,184,24.9L184,24.9z"/>
			</g>
			<g id="chrisHead">
				<ellipse id="earL" class="st8" cx="123.6" cy="108.2" rx="19.3" ry="18.4"/>
				<ellipse id="earR" class="st1" cx="228.8" cy="108.2" rx="19.3" ry="18.4"/>
				<path id="face" class="st9" d="M237.2,92.8c0-41.3-25.9-74.8-57.8-74.8s-57.8,33.5-57.8,74.8c0,0-6.4,7.3,0.9,46.1
					c4.9,25.9,25.4,61.3,57.3,61.4s53.8-32.8,58.4-61.2C244.3,101.6,237.2,92.8,237.2,92.8z"/>
				<path id="mouth" class="st10" d="M202,142.7c-0.2,7.1-6.1,12.7-13.2,12.5c-6.8-0.2-12.3-5.7-12.5-12.5H202z"/>
				<path id="hair" class="st0" d="M179.9,43.8c41.7,2,57.1,25.4,57.1,46.1v31.8l3.6-2.6c0.6-8.7-1.1-69-1.1-69
					c0-23-16.4-41.7-39.3-41.7c-11.8,0-12.9,5-17.6,5s-5.8-5-17.6-5C142,8.3,120.3,27,120.3,50c0,0-1.7,60.3-1.1,69l6.3,2.6V89.9
					C125.4,69.1,138.1,45.8,179.9,43.8z"/>
				<path id="quiff" class="st0" d="M142.9,50.1c0,13.3,20.6,17.8,41.9,24.1c8.3,2.4,42.2-1.1,38.3-3.6l-24.5-9
					c-0.7-0.3-1.1-1.1-0.9-1.8c0.2-0.5,0.6-0.8,1-0.9c8.4-2,27.9-4.8,27.9-8.8c0-13.3-18.8-24-41.9-24S142.9,36.8,142.9,50.1z"/>
				<ellipse class="st11" cx="161" cy="106.3" rx="4.8" ry="4.2"/>
				<ellipse class="st11" cx="211.6" cy="106.4" rx="4.8" ry="4.2"/>
				<path id="nose" class="st1" d="M196.6,125.9v0.6c0.6,8.3-14.6,8.7-15,0C180.8,127,194.3,132.1,196.6,125.9z"/>
				<path class="st12" d="M147.1,100.7c-1.2,0-2.1-0.9-2.1-2c0-0.7,0.3-1.3,0.8-1.7c0.4-0.4,10.6-8.9,19.2-9.3
					c1.1-0.1,2.2,0.7,2.3,1.9c0.1,1.1-0.7,2.2-1.9,2.3c-0.1,0-0.2,0-0.2,0c-6,0.3-14.1,6.1-16.7,8.3
					C148,100.5,147.6,100.7,147.1,100.7z"/>
				<path class="st12" d="M225,92.8c-0.5,0-1-0.2-1.4-0.6c-5.3-4.9-17.5-6.1-17.6-6.1c-1.1-0.2-1.8-1.4-1.6-2.5c0.2-0.9,1-1.6,2-1.6
					c0.6,0.1,13.8,1.3,20.1,7.2c0.8,0.8,0.8,2.1,0,3C226.1,92.5,225.5,92.8,225,92.8z"/>
			</g>
		</g>
	</g>
</g>
</svg>
